<svg xmlns="http://www.w3.org/2000/svg"  viewBox="0 0 32 32" width="32px" height="32px"><path d="M 13.953125 2 C 13.400879 2 12.953125 2.4472656 12.953125 3 L 12.953125 3.5175781 C 11.87793 3.8876953 10.882813 4.4472657 10.021484 5.1699219 L 9.5390625 4.8964844 C 9.0654297 4.6318359 8.4624023 4.7910156 8.1855469 5.2597656 L 6.1386719 8.7246094 C 6.0019531 8.9560546 5.9653321 9.2304688 6.0351562 9.4902344 C 6.1044921 9.75 6.2758789 9.9716797 6.5097656 10.103516 L 6.9707031 10.363281 C 6.8657226 10.910156 6.8125 11.458984 6.8125 12 C 6.8125 12.541016 6.8657227 13.089844 6.9707031 13.636719 L 6.5097656 13.896484 C 6.2758788 14.02832 6.1044921 14.25 6.0351562 14.509766 C 5.965332 14.769531 6.0019531 15.045898 6.1386719 15.277344 L 8.1855469 18.742188 C 8.4619141 19.210938 9.0629882 19.368164 9.5390625 19.103516 L 10.023438 18.830078 C 10.884766 19.552734 11.87793 20.114258 12.953125 20.484375 L 12.953125 21 C 12.953125 21.552734 13.400879 22 13.953125 22 L 18.046875 22 C 18.599121 22 19.046875 21.552734 19.046875 21 L 19.046875 20.482422 C 20.12207 20.112305 21.117187 19.552734 21.978516 18.830078 L 22.460938 19.103516 C 22.935059 19.368164 23.538086 19.208984 23.814453 18.740234 L 25.861328 15.275391 C 25.998047 15.043945 26.036621 14.767578 25.966797 14.507812 C 25.897461 14.248047 25.726074 14.02832 25.492188 13.896484 L 25.029297 13.634766 C 25.134277 13.087891 25.1875 12.541016 25.1875 12 C 25.1875 11.458984 25.134277 10.910156 25.029297 10.363281 L 25.490234 10.103516 C 25.724121 9.9716797 25.895508 9.75 25.964844 9.4902344 C 26.034668 9.2304688 25.998047 8.9541015 25.861328 8.7226562 L 23.814453 5.2578125 C 23.538086 4.7890625 22.935059 4.6298828 22.460938 4.8964844 L 21.976562 5.1699219 C 21.115234 4.4472656 20.12207 3.8857422 19.046875 3.515625 L 19.046875 3 C 19.046875 2.4472656 18.599121 2 18.046875 2 L 13.953125 2 z M 16 6 C 19.308594 6 22 8.6914063 22 12 C 22 15.308594 19.308594 18 16 18 C 12.691406 18 10 15.308594 10 12 C 10 8.6914063 12.691406 6 16 6 z M 16 7 C 13.238586 7 11 9.2385864 11 12 C 11 14.761414 13.238586 17 16 17 C 18.761414 17 21 14.761414 21 12 C 21 9.2385864 18.761414 7 16 7 z M 14.5 9.5 C 14.62793 9.5 14.755859 9.5488281 14.853516 9.6464844 C 15.048828 9.8417969 15.048828 10.158203 14.853516 10.353516 L 13.207031 12 L 14.853516 13.646484 C 15.048828 13.841797 15.048828 14.158203 14.853516 14.353516 C 14.755859 14.451172 14.62793 14.5 14.5 14.5 C 14.37207 14.5 14.244141 14.451172 14.146484 14.353516 L 12.146484 12.353516 C 11.951172 12.158203 11.951172 11.841797 12.146484 11.646484 L 14.146484 9.6464844 C 14.244141 9.5488281 14.37207 9.5 14.5 9.5 z M 17.5 9.5 C 17.62793 9.5 17.755859 9.5488281 17.853516 9.6464844 L 19.853516 11.646484 C 20.048828 11.841797 20.048828 12.158203 19.853516 12.353516 L 17.853516 14.353516 C 17.755859 14.451172 17.62793 14.5 17.5 14.5 C 17.37207 14.5 17.244141 14.451172 17.146484 14.353516 C 16.951172 14.158203 16.951172 13.841797 17.146484 13.646484 L 18.792969 12 L 17.146484 10.353516 C 16.951172 10.158203 16.951172 9.8417969 17.146484 9.6464844 C 17.244141 9.5488281 17.37207 9.5 17.5 9.5 z M 3 11 C 2.4477539 11 2 11.447266 2 12 L 2 26 C 2 26.552734 2.4477539 27 3 27 L 15 27 L 15 28 L 13 28 C 12.447754 28 12 28.447266 12 29 C 12 29.552734 12.447754 30 13 30 L 19 30 C 19.552246 30 20 29.552734 20 29 C 20 28.447266 19.552246 28 19 28 L 17 28 L 17 27 L 29 27 C 29.552246 27 30 26.552734 30 26 L 30 12 C 30 11.447266 29.552246 11 29 11 L 26.126953 11 C 26.162476 11.334717 26.1875 11.669617 26.1875 12 C 26.1875 12.367188 26.165039 12.739258 26.121094 13.111328 C 26.516602 13.379883 26.807617 13.786133 26.931641 14.25 C 27.069824 14.763672 26.994629 15.324219 26.722656 15.785156 L 24.675781 19.25 C 24.319336 19.855469 23.656738 20.230469 22.951172 20.230469 C 22.645996 20.230469 22.344238 20.162109 22.070312 20.027344 C 21.440918 20.485352 20.760742 20.868164 20.039062 21.173828 C 19.950684 22.195313 19.091309 23 18.046875 23 L 13.953125 23 C 12.908691 23 12.049316 22.195313 11.960938 21.173828 C 11.23877 20.868164 10.558594 20.485352 9.9296875 20.027344 C 9.6518555 20.163086 9.3500977 20.230469 9.046875 20.230469 C 8.3413086 20.230469 7.6811523 19.854492 7.3242188 19.248047 L 5.2773438 15.785156 C 5.005371 15.324219 4.9296875 14.763672 5.0683594 14.248047 C 5.1918946 13.786133 5.4833984 13.379883 5.8789062 13.111328 C 5.8349609 12.739258 5.8125 12.367187 5.8125 12 C 5.8125 11.669617 5.8375244 11.334717 5.8730469 11 L 3 11 z"/></svg>